HIERARCHY
ROOT Hips
{
	OFFSET 0.000000 0.000000 0.000000
	CHANNELS 6 Xposition Yposition Zposition Zrotation Yrotation Xrotation 
	JOINT LowerBack
	{
		OFFSET 0.000000 0.000000 0.000000
		CHANNELS 3 Zrotation Yrotation Xrotation
		JOINT Spine
		{
			OFFSET 0.028270 2.035590 -0.193380
			CHANNELS 3 Zrotation Yrotation Xrotation
			JOINT Spine1
			{
				OFFSET 0.056720 2.048850 -0.042750
				CHANNELS 3 Zrotation Yrotation Xrotation
				JOINT Neck
				{
					OFFSET 0.000000 0.000000 0.000000
					CHANNELS 3 Zrotation Yrotation Xrotation
					JOINT Neck1
					{
						OFFSET -0.054170 1.746240 0.172020
						CHANNELS 3 Zrotation Yrotation Xrotation
						JOINT Head
						{
							OFFSET 0.104070 1.761360 -0.123970
							CHANNELS 3 Zrotation Yrotation Xrotation
							End Site
							{
								OFFSET 0.000000 0.000000 0.000000
							}
						}
					}
				}
				JOINT LeftShoulder
				{
					OFFSET 0.000000 0.000000 0.000000
					CHANNELS 3 Zrotation Yrotation Xrotation
					JOINT LeftArm
					{
						OFFSET 3.362410 1.200890 -0.311210
						CHANNELS 3 Zrotation Yrotation Xrotation
						JOINT LeftForeArm
						{
							OFFSET 4.983000 -0.000000 -0.000000
							CHANNELS 3 Zrotation Yrotation Xrotation
							JOINT LeftHand
							{
								OFFSET 3.483560 -0.000000 -0.000000
								CHANNELS 3 Zrotation Yrotation Xrotation
								JOINT LeftFingerBase
								{
									OFFSET 0.000000 0.000000 0.000000
									CHANNELS 3 Zrotation Yrotation Xrotation
									JOINT LeftHandIndex1
									{
										OFFSET 0.715260 -0.000000 -0.000000
										CHANNELS 3 Zrotation Yrotation Xrotation
										End Site
										{
											OFFSET 0.000000 0.000000 0.000000
										}
									}
								}
								JOINT LThumb
								{
									OFFSET 0.000000 0.000000 0.000000
									CHANNELS 3 Zrotation Yrotation Xrotation
									End Site
									{
										OFFSET 0.000000 0.000000 0.000000
									}
								}
							}
						}
					}
				}
				JOINT RightShoulder
				{
					OFFSET 0.000000 0.000000 0.000000
					CHANNELS 3 Zrotation Yrotation Xrotation
					JOINT RightArm
					{
						OFFSET -3.136600 1.374050 -0.404650
						CHANNELS 3 Zrotation Yrotation Xrotation
						JOINT RightForeArm
						{
							OFFSET -5.241900 -0.000000 -0.000000
							CHANNELS 3 Zrotation Yrotation Xrotation
							JOINT RightHand
							{
								OFFSET -3.444170 -0.000000 -0.000000
								CHANNELS 3 Zrotation Yrotation Xrotation
								JOINT RightFingerBase
								{
									OFFSET 0.000000 0.000000 0.000000
									CHANNELS 3 Zrotation Yrotation Xrotation
									JOINT RightHandIndex1
									{
										OFFSET -0.622530 -0.000000 -0.000000
										CHANNELS 3 Zrotation Yrotation Xrotation
										End Site
										{
											OFFSET 0.000000 0.000000 0.000000
										}
									}
								}
								JOINT RThumb
								{
									OFFSET 0.000000 0.000000 0.000000
									CHANNELS 3 Zrotation Yrotation Xrotation
									End Site
									{
										OFFSET 0.000000 0.000000 0.000000
									}
								}
							}
						}
					}
				}
			}
		}
	}
}
}
MOTION
Frames: 14
Frame Time: 0.008333
8.423557 16.238608 2.261225 147.971553 -84.184790 -111.640454 -8.765194 1.179929 1.415118 -2.745275 1.538213 -2.385143 -4.792064 1.504966 1.329367 5.661978 0.769437 2.401740 -2.327434 -0.292438 2.326181 0.000000 0.000000 0.000000 -0.347630 4.007277 2.484891 -44.770715 21.369951 14.767771 -4.279822 -20.787831 -0.013622 -1.670518 3.947423 -0.053737 -0.152394 -0.105035 -0.000000 0.000000 0.000000 0.000000 0.000000 0.000000 0.000000 6.699210 3.579327 -2.296245 68.080035 48.866515 27.584879 0.568317 78.395533 -0.009909 -2.147466 9.809811 -0.196007 0.037152 -0.466519 -0.000000 0.000000 0.000000 0.000000 0.000000 0.000000 0.000000 
8.168167 16.107475 2.234059 145.183484 -84.215555 -109.680278 -9.125951 1.157106 1.816460 -2.854262 1.520057 -2.318696 -4.931998 1.492876 1.250617 5.670358 1.097660 2.559590 -2.441046 -0.300766 2.358852 0.000000 0.000000 0.000000 -0.147118 3.817212 2.481025 -44.051133 21.677793 15.512581 -4.323683 -20.962319 -0.014080 -2.012133 3.803407 -0.063647 -0.152709 -0.110124 -0.000000 0.000000 0.000000 0.000000 0.000000 0.000000 0.000000 7.220441 3.851058 -2.294017 67.559700 48.890949 26.939462 0.554190 78.415932 -0.011241 -2.219097 9.910671 -0.204241 0.033490 -0.469952 -0.000000 0.000000 0.000000 0.000000 0.000000 0.000000 0.000000 
7.919132 15.986653 2.206790 142.442187 -84.149549 -107.825609 -9.503780 1.154254 2.311686 -2.973245 1.518379 -2.229570 -5.091523 1.498488 1.180131 5.668339 1.454909 2.749346 -2.586648 -0.310941 2.394545 0.000000 0.000000 0.000000 -0.077123 3.666366 2.477588 -43.301312 21.622972 16.078524 -4.385710 -20.804223 -0.014685 -2.427204 3.635569 -0.074559 -0.153380 -0.114532 -0.000000 0.000000 0.000000 0.000000 0.000000 0.000000 0.000000 7.858978 4.130366 -2.308418 67.166990 48.829542 26.280550 0.548768 78.231742 -0.012593 -2.295369 10.064336 -0.214076 0.029679 -0.472478 -0.000000 0.000000 0.000000 0.000000 0.000000 0.000000 0.000000 
7.676674 15.879241 2.179985 139.982162 -83.989990 -106.277011 -9.889295 1.177024 2.878570 -3.097757 1.538620 -2.123415 -5.262120 1.526767 1.117214 5.642257 1.838307 2.965976 -2.757516 -0.322454 2.432040 0.000000 0.000000 0.000000 -0.122626 3.572286 2.477183 -42.597197 21.121870 16.296871 -4.469567 -20.204455 -0.015349 -2.858540 3.458376 -0.084476 -0.155115 -0.117297 -0.000000 0.000000 0.000000 0.000000 0.000000 0.000000 0.000000 8.561874 4.414990 -2.348227 66.957514 48.628210 25.589945 0.550853 77.839909 -0.013970 -2.376380 10.259496 -0.225410 0.025716 -0.473911 -0.000000 0.000000 0.000000 0.000000 0.000000 0.000000 0.000000 
7.440707 15.788078 2.154227 137.972243 -83.738766 -105.175416 -10.274742 1.228386 3.496835 -3.224080 1.583923 -2.003932 -5.438267 1.580571 1.066739 5.584881 2.228633 3.195316 -2.950424 -0.334888 2.467685 0.000000 0.000000 0.000000 -0.297046 3.565550 2.479383 -41.958379 20.104586 16.075519 -4.574715 -19.116384 -0.015969 -3.232577 3.313787 -0.092195 -0.158451 -0.117559 -0.000000 0.000000 0.000000 0.000000 0.000000 0.000000 0.000000 9.302616 4.686572 -2.415363 66.957422 48.277675 24.877375 0.559889 77.230909 -0.015443 -2.482733 10.481690 -0.240041 0.022096 -0.473907 -0.000000 0.000000 0.000000 0.000000 0.000000 0.000000 0.000000 
7.210624 15.715099 2.130369 136.554594 -83.411504 -104.635128 -10.640130 1.310698 4.139565 -3.345960 1.657003 -1.879488 -5.616174 1.661944 1.022130 5.490860 2.620155 3.433428 -3.159571 -0.347884 2.501391 0.000000 0.000000 0.000000 -0.621633 3.617530 2.480640 -41.396299 18.609055 15.252950 -4.697676 -17.544023 -0.016385 -3.453068 3.254004 -0.096914 -0.163647 -0.114220 -0.000000 0.000000 0.000000 0.000000 0.000000 0.000000 0.000000 10.045808 4.941558 -2.505632 67.175907 47.746416 24.126849 0.574615 76.405976 -0.017074 -2.632130 10.717541 -0.259568 0.019207 -0.472351 -0.000000 0.000000 0.000000 0.000000 0.000000 0.000000 0.000000 
6.985698 15.661342 2.109464 135.810957 -83.031067 -104.715808 -10.961002 1.424197 4.784503 -3.455588 1.759026 -1.751155 -5.787889 1.772043 0.997393 5.355934 2.996494 3.655372 -3.377486 -0.360709 2.527211 0.000000 0.000000 0.000000 -1.081399 3.823394 2.474110 -40.937672 16.483489 13.759057 -4.825232 -15.403110 -0.016241 -3.377791 3.297900 -0.095428 -0.170070 -0.105417 -0.000000 0.000000 0.000000 0.000000 0.000000 0.000000 0.000000 10.751537 5.160938 -2.625490 67.613593 47.038178 23.330596 0.592748 75.365348 -0.018938 -2.843772 10.959662 -0.286190 0.017243 -0.469030 -0.000000 0.000000 0.000000 0.000000 0.000000 0.000000 0.000000 
6.764780 15.626986 2.092514 135.765135 -82.622329 -105.424518 -11.209180 1.567806 5.405648 -3.545940 1.889946 -1.628774 -5.953846 1.909974 0.979388 5.183410 3.361782 3.864267 -3.596083 -0.373079 2.547874 0.000000 0.000000 0.000000 -1.707683 4.114153 2.450293 -40.545026 13.866744 11.437236 -4.936539 -12.791011 -0.015359 -2.848728 3.463132 -0.083037 -0.175902 -0.089913 -0.000000 0.000000 0.000000 0.000000 0.000000 0.000000 0.000000 11.391075 5.351278 -2.762621 68.241437 46.129210 22.452748 0.612069 74.114355 -0.021108 -3.134262 11.201630 -0.321906 0.016390 -0.464070 -0.000000 0.000000 0.000000 0.000000 0.000000 0.000000 0.000000 
6.546821 15.611333 2.080374 136.393267 -82.207756 -106.728404 -11.361370 1.737785 5.984226 -3.611271 2.047369 -1.514744 -6.112697 2.073177 0.974316 4.979674 3.709258 4.044957 -3.806508 -0.384428 2.560852 0.000000 0.000000 0.000000 -2.502621 4.528003 2.399696 -40.179453 10.748847 8.296571 -4.996355 -9.781137 -0.013674 -1.677628 3.694605 -0.049438 -0.177575 -0.066942 -0.000000 0.000000 0.000000 0.000000 0.000000 0.000000 0.000000 11.939629 5.505995 -2.913887 69.028235 45.034543 21.472818 0.629705 72.653264 -0.023627 -3.516135 11.442361 -0.368319 0.016610 -0.457455 -0.000000 0.000000 0.000000 0.000000 0.000000 0.000000 0.000000 
6.330565 15.612933 2.073635 137.643121 -81.803673 -108.568681 -11.400623 1.927077 6.503595 -3.648279 2.225467 -1.411773 -6.266504 2.255620 0.985404 4.755162 4.034541 4.186798 -4.000369 -0.394311 2.564979 0.000000 0.000000 0.000000 -3.475580 5.066773 2.317875 -39.779859 7.223950 4.503019 -4.964783 -6.591383 -0.011618 0.287874 3.885928 0.015567 -0.170326 -0.037919 -0.000000 0.000000 0.000000 0.000000 0.000000 0.000000 0.000000 12.383507 5.625182 -3.071196 69.936265 43.777806 20.375203 0.643377 70.978552 -0.026477 -3.995350 11.682934 -0.426628 0.017843 -0.449212 -0.000000 0.000000 0.000000 0.000000 0.000000 0.000000 0.000000 
6.114955 15.629830 2.072287 139.433183 -81.417121 -110.862467 -11.319919 2.125181 6.948923 -3.655820 2.414751 -1.323776 -6.417161 2.447498 1.010450 4.521982 4.335817 4.285700 -4.171209 -0.402490 2.560942 0.000000 0.000000 0.000000 -4.618888 5.677058 2.211870 -39.321566 3.523879 0.410892 -4.818495 -3.597044 -0.010106 3.078517 3.914231 0.110377 -0.149932 -0.006958 -0.000000 0.000000 0.000000 0.000000 0.000000 0.000000 0.000000 12.720041 5.717920 -3.220608 70.924431 42.389349 19.151371 0.652337 69.082449 -0.029550 -4.569321 11.924260 -0.497432 0.020082 -0.439430 -0.000000 0.000000 0.000000 0.000000 0.000000 0.000000 0.000000 
5.898937 15.659789 2.076335 141.676114 -81.056465 -113.521487 -11.123718 2.319750 7.308357 -3.634236 2.603676 -1.252341 -6.560779 2.637249 1.052000 4.293459 4.607110 4.335790 -4.315351 -0.408820 2.548487 0.000000 0.000000 0.000000 -5.872127 6.316056 2.094700 -38.883847 -0.132071 -3.560370 -4.567977 -1.158335 -0.009928 6.551345 3.671763 0.212592 -0.114777 0.020738 -0.000000 0.000000 0.000000 0.000000 0.000000 0.000000 0.000000 12.955961 5.788454 -3.349677 71.950777 40.914745 17.808607 0.657580 66.953641 -0.032651 -5.227520 12.164754 -0.579935 0.023376 -0.428105 -0.000000 0.000000 0.000000 0.000000 0.000000 0.000000 0.000000 
5.681858 15.700466 2.084880 144.252459 -80.722637 -116.430011 -10.828266 2.499657 7.571191 -3.585153 2.781519 -1.201654 -6.686710 2.813816 1.101242 4.085082 4.849852 4.347442 -4.431712 -0.413472 2.531695 0.000000 0.000000 0.000000 -7.122759 6.876545 1.981403 -38.643785 -3.464209 -7.177854 -4.251623 0.446623 -0.011091 10.425987 3.088801 0.279807 -0.066715 0.040476 -0.000000 0.000000 0.000000 0.000000 0.000000 0.000000 0.000000 13.106427 5.845697 -3.440809 72.967987 39.389481 16.353505 0.661761 64.579988 -0.035537 -5.950959 12.397559 -0.672033 0.027745 -0.415295 -0.000000 0.000000 0.000000 0.000000 0.000000 0.000000 0.000000 
5.463181 15.749653 2.097075 147.045796 -80.422514 -119.475203 -10.455766 2.655616 7.732226 -3.511723 2.938909 -1.172279 -6.782283 2.967843 1.154989 3.914510 5.062986 4.329152 -4.520438 -0.416586 2.513447 0.000000 0.000000 0.000000 -8.242722 7.306956 1.878231 -38.795146 -6.336109 -10.357747 -3.910980 1.127719 -0.012751 14.369440 2.126249 0.261921 -0.010697 0.049201 -0.000000 0.000000 0.000000 0.000000 0.000000 0.000000 0.000000 13.192095 5.887695 -3.483299 73.933470 37.856227 14.803723 0.668326 61.950274 -0.037943 -6.714262 12.611571 -0.770627 0.033097 -0.400911 -0.000000 0.000000 0.000000 0.000000 0.000000 0.000000 0.000000 
